<?xml version="1.0" encoding="UTF-8" standalone="no"?>
<!-- Created with Inkscape (http://www.inkscape.org/) -->

<svg
   width="484mm"
   height="297mm"
   viewBox="0 0 484 297"
   version="1.1"
   id="svg300"
   xml:space="preserve"
   sodipodi:docname="modelo.svg"
   inkscape:version="1.3 (0e150ed6c4, 2023-07-21)"
   inkscape:export-filename="teste.svg"
   inkscape:export-xdpi="96"
   inkscape:export-ydpi="96"
   xmlns:inkscape="http://www.inkscape.org/namespaces/inkscape"
   xmlns:sodipodi="http://sodipodi.sourceforge.net/DTD/sodipodi-0.dtd"
   xmlns="http://www.w3.org/2000/svg"
   xmlns:svg="http://www.w3.org/2000/svg"><sodipodi:namedview
     id="namedview302"
     pagecolor="#ffffff"
     bordercolor="#000000"
     borderopacity="0.25"
     inkscape:showpageshadow="2"
     inkscape:pageopacity="0.0"
     inkscape:pagecheckerboard="0"
     inkscape:deskcolor="#d1d1d1"
     inkscape:document-units="mm"
     showgrid="false"
     inkscape:zoom="0.31622395"
     inkscape:cx="585.02843"
     inkscape:cy="855.40643"
     inkscape:window-width="1366"
     inkscape:window-height="705"
     inkscape:window-x="-8"
     inkscape:window-y="-8"
     inkscape:window-maximized="1"
     inkscape:current-layer="layer1"
     showguides="true"><inkscape:grid
       type="xygrid"
       id="grid2445"
       originx="0"
       originy="0"
       spacingy="1"
       spacingx="1"
       units="mm"
       visible="false" /></sodipodi:namedview><defs
     id="defs297"><marker
       id="DistanceX"
       orient="auto"
       refX="0"
       refY="0"
       style="overflow:visible"><path
         d="M 3,-3 -3,3 M 0,-5 V 5"
         style="stroke:#000000;stroke-width:0.5"
         id="path1" /></marker><pattern
       id="Hatch"
       patternUnits="userSpaceOnUse"
       width="8"
       height="8"
       x="0"
       y="0"><path
         d="M8 4 l-4,4"
         stroke="#000000"
         stroke-width="0.25"
         linecap="square"
         id="path2" /><path
         d="M6 2 l-4,4"
         stroke="#000000"
         stroke-width="0.25"
         linecap="square"
         id="path3" /><path
         d="M4 0 l-4,4"
         stroke="#000000"
         stroke-width="0.25"
         linecap="square"
         id="path4" /></pattern><symbol
       id="*MODEL_SPACE" /><symbol
       id="*PAPER_SPACE" /></defs><g
     inkscape:label="Camada 1"
     inkscape:groupmode="layer"
     id="layer1"><g
       id="g1708"
       transform="matrix(3.1288357,0,0,3.1288357,-321.77558,-284.94501)"
       sodipodi:insensitive="true"><path
         style="fill:#000000;fill-opacity:0.261364;stroke:#0e1020;stroke-width:0.264583;stroke-opacity:1"
         d="m 112.71131,110.87759 c 0,0 1.49117,-7.21262 14.04846,-9.9664 5.96147,-1.307344 17.40477,-0.43367 17.40477,-0.43367 0,0 16.26853,2.56873 17.64828,10.51099 -2.18724,0.11523 -4.66586,0.0382 -8.32049,-0.0383 l 0.0229,15.30277 0.004,0.47874 -0.0171,0.67688 -0.007,2.89009 -0.007,0.12534 0.0174,3.66895 7.76276,-0.009 0.001,7.80806 -0.002,1.85134 0.004,1.2377 0.002,0.41443 -7.71501,0.0211 -0.0551,4.28499 0.004,0.35864 -7.5e-4,0.84367 c 0.003,-0.18469 0.002,0.0321 0.006,-0.74937 l -0.0125,3.00036 0.007,0.57361 -0.0144,15.57587 0.0282,-0.0931 7.52564,0.0219 c 0,0 1.5873,4.5247 -9.08058,8.60359 -10.66787,4.0789 -27.95088,0.62753 -27.95088,0.62753 -2.95249,-0.76335 -3.60971,-1.22569 -6.25341,-2.8194 -1.62835,-0.98163 -3.79765,-3.3062 -4.36424,-4.58495 -1.17284,-2.64706 -1.60133,-1.9602 7.61078,-1.90391 l 0.0105,-15.37429 1e-5,-0.12966 -0.0137,-1.70612 0.01,-0.94115 0.0119,-1.29394 0.0334,-4.26994 -7.94207,0.0131 4.6e-4,-11.39345 0.30723,0.007 7.59787,0.0144 -0.002,-3.96255 -0.01,-3.74379 -0.011,1.3781 c 0.0189,0.95956 0.009,1.25798 0.008,-1.01635 l 0.0644,-15.87274 -3.83491,2.4e-4 z"
         id="path1842-7"
         sodipodi:nodetypes="csccccccccccccccccccccccccscsccccccccccccccccccc" /><path
         style="font-size:5.63752px;font-family:Bahnschrift;-inkscape-font-specification:Bahnschrift;opacity:0;fill-opacity:0;stroke:#000000;stroke-width:0.0845629"
         d="m 124.99135,139.77498 h 1.28 q 0.18168,0 0.31932,-0.0853 0.13763,-0.0853 0.21195,-0.24223 0.0771,-0.15691 0.0771,-0.36061 v 0 q 0,-0.20645 -0.0771,-0.36335 -0.0743,-0.15691 -0.21195,-0.24224 -0.13764,-0.0881 -0.31932,-0.0881 h -1.28 v -0.53402 h 1.26074 q 0.35785,0 0.63036,0.15415 0.27252,0.1514 0.42117,0.42942 0.15139,0.27802 0.15139,0.64413 v 0 q 0,0.36611 -0.15139,0.64413 -0.14865,0.27527 -0.42117,0.42667 -0.27251,0.1514 -0.63036,0.1514 h -1.26074 z m -0.28903,-1.91588 h 0.56155 v 4.00242 h -0.56155 z m 5.33747,3.53171 q -0.48447,0 -0.72671,-0.3083 -0.23948,-0.3083 -0.23948,-0.92491 v -0.47346 q 0,-0.61936 0.27251,-0.92491 0.27527,-0.3083 0.82581,-0.3083 0.55054,0 0.82306,0.3083 0.27252,0.30555 0.27252,0.92766 v 0.88912 l -0.4019,0.15966 q -0.055,0.32757 -0.2615,0.49273 -0.2037,0.16241 -0.56431,0.16241 z m 0.12663,-0.5065 q 0.28628,0 0.42667,-0.17342 0.14038,-0.17617 0.14038,-0.53127 v -0.52576 q 0,-0.34959 -0.14038,-0.52301 -0.14039,-0.17342 -0.42667,-0.17342 -0.5588,0 -0.5588,0.69918 v 0.52301 q 0,0.3551 0.13764,0.53127 0.14038,0.17342 0.42116,0.17342 z m 0.0138,1.51674 q -0.70469,0 -1.17265,-0.22848 -0.46795,-0.22572 -0.70193,-0.67991 -0.23123,-0.4542 -0.23123,-1.13962 0,-0.18718 0,-0.37436 0,-0.18719 0.003,-0.37437 0.006,-0.74323 0.23949,-1.23596 0.23398,-0.49273 0.69918,-0.73772 0.46521,-0.24499 1.16439,-0.24499 0.68818,0 1.15063,0.24774 0.4652,0.24499 0.69918,0.74047 0.23673,0.49274 0.23673,1.23046 v 0.85884 q 0,0.47622 -0.19819,0.70194 -0.19819,0.22572 -0.57531,0.22572 -0.39914,0 -0.60009,-0.21471 -0.19819,-0.21471 -0.19819,-0.64964 l 0.57256,-0.0165 q 0,0.2037 0.0606,0.30279 0.0606,0.0991 0.18443,0.0991 0.12937,0 0.18718,-0.0936 0.0606,-0.0936 0.0606,-0.30005 v -0.91389 q 0,-0.57807 -0.17893,-0.96344 -0.17892,-0.38813 -0.53127,-0.58082 -0.35234,-0.19544 -0.86985,-0.19544 -0.53127,0 -0.88361,0.19269 -0.35235,0.19268 -0.53127,0.57806 -0.17618,0.38538 -0.18168,0.96895 -0.003,0.18443 -0.003,0.37161 0,0.18719 0,0.37712 0,0.52026 0.17617,0.8671 0.17617,0.34409 0.53127,0.51476 0.3551,0.17342 0.89187,0.17342 h 0.8203 v 0.49273 z m 3.57575,-4.21438 h 0.56155 v 3.67485 h -0.56155 z m -1.13136,-0.32757 h 2.82427 v 0.53402 h -2.82427 z m 3.93636,4.00242 h -0.56155 v -4.00242 h 0.56155 z m 0.99097,-4.00242 h 0.56155 v 4.00242 h -0.56155 z m 0.27527,1.78375 h 1.94065 v 0.53402 h -1.94065 z m 0,-1.78375 h 2.24344 v 0.53402 h -2.24344 z m 2.93162,0 h 0.56155 v 4.00242 h -0.56155 z m 0.27252,3.4684 h 2.2985 v 0.53402 h -2.2985 z m 0,-1.72044 h 1.9957 v 0.53403 h -1.9957 z m 0,-1.74796 h 2.2985 v 0.53402 h -2.2985 z m 3.34177,1.77549 h 1.36533 q 0.15966,0 0.28353,-0.0771 0.12387,-0.0771 0.18994,-0.21746 0.0688,-0.14314 0.0688,-0.32757 v 0 q 0,-0.18443 -0.0688,-0.32482 -0.0661,-0.14314 -0.18994,-0.22021 -0.12112,-0.0771 -0.28353,-0.0771 h -1.36533 v -0.53402 h 1.34331 q 0.34684,0 0.60835,0.14314 0.26426,0.14314 0.4074,0.4074 0.14589,0.2615 0.14589,0.60559 v 0 q 0,0.34409 -0.14589,0.60835 -0.1459,0.2615 -0.41015,0.40464 -0.26151,0.14314 -0.6056,0.14314 h -1.34331 z m -0.24499,-1.77824 h 0.56155 v 4.00517 h -0.56155 z m 1.33506,2.18839 0.55879,-0.12662 1.024,1.9434 h -0.66615 z m 3.55373,1.85807 q -0.41841,0 -0.73773,-0.18168 -0.31931,-0.18443 -0.49548,-0.5175 -0.17342,-0.33583 -0.17342,-0.77626 v -1.13411 q 0,-0.44044 0.17342,-0.77351 0.17617,-0.33583 0.49548,-0.51751 0.31932,-0.18443 0.73773,-0.18443 0.41841,0 0.73772,0.18443 0.31931,0.18168 0.49273,0.51751 0.17617,0.33307 0.17617,0.77351 v 1.13411 q 0,0.44043 -0.17617,0.77626 -0.17342,0.33307 -0.49273,0.5175 -0.31931,0.18168 -0.73772,0.18168 z m 0,-0.55329 q 0.24774,0 0.43492,-0.11011 0.18994,-0.11286 0.29179,-0.31656 0.1046,-0.20645 0.1046,-0.47622 v -1.17264 q 0,-0.26977 -0.1046,-0.47347 -0.10185,-0.20645 -0.29179,-0.31656 -0.18718,-0.11286 -0.43492,-0.11286 -0.24775,0 -0.43768,0.11286 -0.18719,0.11011 -0.29179,0.31656 -0.10185,0.2037 -0.10185,0.47347 v 1.17264 q 0,0.26977 0.10185,0.47622 0.1046,0.2037 0.29179,0.31656 0.18993,0.11011 0.43768,0.11011 z"
         id="text2"
         aria-label="P@TIFERO" /><path
         id="path5"
         style="opacity:0;fill-opacity:0;stroke:#000000;stroke-width:0.0845629"
         d="m 154.23833,172.89957 a 0.95882314,0.95882314 0 0 1 -0.95882,0.95882 0.95882314,0.95882314 0 0 1 -0.95882,-0.95882 0.95882314,0.95882314 0 0 1 0.95882,-0.95883 0.95882314,0.95882314 0 0 1 0.95882,0.95883 z" /><path
         id="path5-5"
         style="opacity:0;fill-opacity:0;stroke:#000000;stroke-width:0.0845629"
         d="m 131.19692,139.97847 a 0.95882314,0.95882314 0 0 1 -0.95882,0.95882 0.95882314,0.95882314 0 0 1 -0.95882,-0.95882 0.95882314,0.95882314 0 0 1 0.95882,-0.95883 0.95882314,0.95882314 0 0 1 0.95882,0.95883 z" /><path
         id="path5-2"
         style="opacity:0;fill-opacity:0;stroke:#000000;stroke-width:0.0845629"
         d="m 122.16483,173.03304 a 0.95882314,0.95882314 0 0 1 -0.95882,0.95882 0.95882314,0.95882314 0 0 1 -0.95882,-0.95882 0.95882314,0.95882314 0 0 1 0.95882,-0.95883 0.95882314,0.95882314 0 0 1 0.95882,0.95883 z" /><path
         id="rect6"
         style="opacity:0;fill-opacity:0;stroke:#000000;stroke-width:0.0845629"
         d="m 122.3159,108.37241 h 29.87632 v 1.60727 H 122.3159 Z" /><path
         id="rect7"
         style="opacity:0;fill-opacity:0;stroke:#000000;stroke-width:0.206771"
         d="m 113.19582,134.08519 h 48.07926 v 11.30976 h -48.07926 z" /><path
         id="rect9"
         style="opacity:0;fill-opacity:0;stroke:#000000;stroke-width:0.124299"
         d="m 121.00993,110.71003 h 5.04114 v 58.52404 h -5.04114 z" /><path
         id="rect9-2"
         style="opacity:0;fill-opacity:0;stroke:#000000;stroke-width:0.124299"
         d="m 148.46637,110.92695 h 5.04114 v 58.52404 h -5.04114 z" /><path
         style="fill:#000000;fill-opacity:0.261364;stroke:#0e1020;stroke-width:0.264583;stroke-opacity:1"
         d="m 175.94059,111.39091 c 0,0 1.49117,-7.21262 14.04846,-9.9664 5.96147,-1.30734 17.40477,-0.43367 17.40477,-0.43367 0,0 16.26853,2.56873 17.64828,10.51099 -2.18724,0.11523 -4.66586,0.0382 -8.32049,-0.0383 l 0.0229,15.30277 0.004,0.47874 -0.0171,0.67688 -0.007,2.89009 -0.007,0.12534 0.0174,3.66895 7.76276,-0.009 -0.008,7.79329 0.0216,1.78043 -0.0196,1.21406 0.0138,0.53261 -7.78591,4.2e-4 0.0338,4.67654 -0.0208,0.63083 0.003,1.85829 -0.006,1.6752 v 0.58782 l -10e-4,0.59677 0.0265,13.77994 -0.006,0.001 7.52564,0.0219 c 0,0 1.5873,4.5247 -9.08058,8.60359 -10.66787,4.0789 -27.95088,0.62753 -27.95088,0.62753 -2.95249,-0.76335 -3.60971,-1.22569 -6.25341,-2.8194 -1.62835,-0.98163 -3.79765,-3.3062 -4.36424,-4.58495 -1.17284,-2.64706 -1.60133,-1.9602 7.61078,-1.90391 l 0.0105,-15.37429 1e-5,-0.12966 -0.0137,-1.70612 0.01,-0.94115 0.0119,-1.29394 0.0334,-4.26994 -7.94207,0.0131 4.6e-4,-11.39345 0.30723,0.007 7.59787,0.0144 -0.002,-3.96255 -0.01,-3.74379 0.53267,0.36174 c -0.3093,0.0141 0.85987,-0.18384 -0.53601,1e-5 l 0.0644,-15.87274 -3.83491,2.4e-4 z"
         id="path1842-7-8"
         sodipodi:nodetypes="csccccccccccccccccccccccccscsccccccccccccccccccc" /><path
         id="rect7-4"
         style="opacity:0;fill-opacity:0;stroke:#000000;stroke-width:0.206771"
         d="m 176.4251,134.59851 h 48.07926 v 11.30976 H 176.4251 Z" /><path
         id="rect9-5"
         style="opacity:0;fill-opacity:0;stroke:#000000;stroke-width:0.124299"
         d="m 184.23921,111.22335 h 5.04114 v 58.52404 h -5.04114 z" /><path
         id="rect9-2-9"
         style="opacity:0;fill-opacity:0;stroke:#000000;stroke-width:0.124299"
         d="m 211.69565,111.44027 h 5.04114 v 58.52404 h -5.04114 z" /><path
         id="rect25"
         style="opacity:0;fill-opacity:0;stroke:#000000;stroke-width:0.0845629"
         d="m 194.09586,174.90506 h 12.7843 v 0.63922 h -12.7843 z" /><path
         id="path5-4"
         style="opacity:0;fill-opacity:0;stroke:#000000;stroke-width:0.0845629"
         d="m 154.04169,105.00994 a 0.95882314,0.95882314 0 0 1 -0.95882,0.95882 0.95882314,0.95882314 0 0 1 -0.95882,-0.95882 0.95882314,0.95882314 0 0 1 0.95882,-0.95883 0.95882314,0.95882314 0 0 1 0.95882,0.95883 z" /><path
         id="path5-2-2"
         style="opacity:0;fill-opacity:0;stroke:#000000;stroke-width:0.0845629"
         d="m 121.96819,105.14341 a 0.95882314,0.95882314 0 0 1 -0.95882,0.95882 0.95882314,0.95882314 0 0 1 -0.95882,-0.95882 0.95882314,0.95882314 0 0 1 0.95882,-0.95883 0.95882314,0.95882314 0 0 1 0.95882,0.95883 z" /><g
         id="g1"
         transform="translate(-1.6932268)"><path
           id="path5-2-2-7"
           style="opacity:0;fill-opacity:0;stroke:#000000;stroke-width:0.0845629"
           d="m 138.21755,103.56643 a 0.95882314,0.95882314 0 0 1 -0.95882,0.95882 0.95882314,0.95882314 0 0 1 -0.95882,-0.95882 0.95882314,0.95882314 0 0 1 0.95882,-0.95883 0.95882314,0.95882314 0 0 1 0.95882,0.95883 z" /><path
           id="path5-2-2-7-5"
           style="opacity:0;fill-opacity:0;stroke:#000000;stroke-width:0.0845629"
           d="m 141.604,103.55059 a 0.95882314,0.95882314 0 0 1 -0.95882,0.95882 0.95882314,0.95882314 0 0 1 -0.95882,-0.95882 0.95882314,0.95882314 0 0 1 0.95882,-0.95883 0.95882314,0.95882314 0 0 1 0.95882,0.95883 z" /></g><circle
         style="opacity:0;fill:#000000;fill-opacity:0;stroke:#000000;stroke-width:0.0845629"
         id="path6"
         cx="137.30371"
         cy="153.23416"
         r="3.8352926" /></g><path
       style="opacity:0;fill-opacity:0;stroke:#000000;stroke-width:0.179057"
       d="m -230.46948,-227.78783 h 49.82094 v 35.38134 h -49.82094 z"
       transform="scale(-1)"
       id="rect1" /><path
       style="opacity:0;fill-opacity:0;stroke:#000000;stroke-width:0.179057"
       d="m -231.41223,-117.04393 h 49.82094 v 35.38134 h -49.82094 z"
       transform="scale(-1)"
       id="rect1-9" /><g
       id="g7"
       transform="translate(-16.933338,7.9375004)"><path
         style="opacity:0;fill-opacity:0;stroke:#000000;stroke-width:0.262701"
         d="M 478.17279,116.09994 H 376.72151 V 66.098057 h 101.45128 z"
         id="rect2" /><path
         style="opacity:0;fill-opacity:0;stroke:#000000;stroke-width:0.264583"
         d="m 381.59555,70.99601 h 91.70319 v 7.099601 h -91.70319 z"
         id="rect3" /></g></g></svg>
